<svg width="36" height="36" viewBox="0 0 36 36" fill="none" xmlns="http://www.w3.org/2000/svg">
<path fill-rule="evenodd" clip-rule="evenodd" d="M18 36C27.9411 36 36 27.9411 36 18C36 8.05887 27.9411 0 18 0C8.05887 0 0 8.05887 0 18C0 27.9411 8.05887 36 18 36Z" fill="#00374F"/>
<path d="M22.4142 24.5858C23.1953 25.3668 23.1953 26.6332 22.4142 27.4142C21.6332 28.1953 20.3668 28.1953 19.5858 27.4142L11.5858 19.4142C10.8047 18.6332 10.8047 17.3668 11.5858 16.5858L19.5858 8.58579C20.3668 7.80474 21.6332 7.80474 22.4142 8.58579C23.1953 9.36683 23.1953 10.6332 22.4142 11.4142L15.8284 18L22.4142 24.5858Z" fill="white"/>
</svg>
