<svg width="36" height="36" viewBox="0 0 36 36" fill="none" xmlns="http://www.w3.org/2000/svg">
<path fill-rule="evenodd" clip-rule="evenodd" d="M18 36C27.9411 36 36 27.9411 36 18C36 8.05887 27.9411 0 18 0C8.05887 0 0 8.05887 0 18C0 27.9411 8.05887 36 18 36Z" fill="#00374F"/>
<path d="M13.5858 11.4142C12.8047 10.6332 12.8047 9.36684 13.5858 8.58579C14.3668 7.80474 15.6332 7.80474 16.4142 8.58579L24.4142 16.5858C25.1953 17.3668 25.1953 18.6332 24.4142 19.4142L16.4142 27.4142C15.6332 28.1953 14.3668 28.1953 13.5858 27.4142C12.8047 26.6332 12.8047 25.3668 13.5858 24.5858L20.1716 18L13.5858 11.4142Z" fill="white"/>
</svg>