<svg width="25" height="24" viewBox="0 0 25 24" fill="none" xmlns="http://www.w3.org/2000/svg">
<g clip-path="url(#clip0_2256_22394)">
<g filter="url(#filter0_b_2256_22394)">
<path fill-rule="evenodd" clip-rule="evenodd" d="M10.8852 19.1549C10.8852 19.7285 10.433 20.1947 9.87937 20.1947C9.3188 20.1947 8.86561 19.7285 8.86561 19.1549C8.86561 18.5824 9.3188 18.1162 9.87937 18.1162C10.433 18.1162 10.8852 18.5824 10.8852 19.1549ZM20.8603 18.1283C21.4099 18.1283 21.8592 18.5865 21.8592 19.1549C21.8592 19.7244 21.4099 20.1826 20.8603 20.1826C20.3077 20.1826 19.8613 19.7244 19.8613 19.1549C19.8613 18.5865 20.3077 18.1283 20.8603 18.1283ZM21.5937 15.0587L24.4323 6.32284C24.5739 5.90412 24.4669 5.65129 24.3518 5.4854C24.0597 5.0587 23.453 5.05461 23.338 5.05461L7.30222 5.05052L6.8715 2.96488C6.75656 2.47027 6.41532 2 5.72709 2H1.22184C0.753738 2 0.5 2.22562 0.5 2.67564V3.88128C0.5 4.31514 0.753738 4.42642 1.23755 4.42642H5.04363L7.95506 17.1442C7.48993 17.65 7.24017 18.3852 7.24017 19.068C7.24017 20.578 8.40844 21.9688 9.89906 21.9688C11.3079 21.9688 12.3641 20.6093 12.5331 19.8032H18.2064C18.3756 20.6093 19.2321 22.0001 20.8416 22.0001C22.3046 22.0001 23.4993 20.6924 23.4993 19.1873C23.4993 17.6893 22.6114 16.3624 20.8563 16.3624C20.1228 16.3624 19.2585 16.769 18.8555 17.3739H11.8842C11.3807 16.5636 10.6895 16.3149 9.99033 16.2865L9.89508 15.7575H20.4954C21.2978 15.7575 21.4521 15.4572 21.5937 15.0587Z" fill="white"/>
</g>
</g>
<defs>
<filter id="filter0_b_2256_22394" x="-26.6828" y="-25.1828" width="78.3656" height="74.3656" filterUnits="userSpaceOnUse" color-interpolation-filters="sRGB">
<feFlood flood-opacity="0" result="BackgroundImageFix"/>
<feGaussianBlur in="BackgroundImageFix" stdDeviation="13.5914"/>
<feComposite in2="SourceAlpha" operator="in" result="effect1_backgroundBlur_2256_22394"/>
<feBlend mode="normal" in="SourceGraphic" in2="effect1_backgroundBlur_2256_22394" result="shape"/>
</filter>
<clipPath id="clip0_2256_22394">
<rect width="24" height="24" fill="white" transform="translate(0.5)"/>
</clipPath>
</defs>
</svg>
