<svg width="24" height="24" viewBox="0 0 24 24" fill="none" xmlns="http://www.w3.org/2000/svg">
<g clip-path="url(#clip0_2035_21824)">
<path fill-rule="evenodd" clip-rule="evenodd" d="M17.416 2.42172C18.253 1.81357 18.947 1.30934 19.4677 1.09826C21.4587 0.292274 23.9267 4.53522 23.9297 10.4942C23.9337 16.4481 21.6057 20.658 19.4047 19.916C18.6207 19.6522 17.7824 19.0251 16.8167 18.3027C15.3113 17.1766 13.4965 15.8189 11.0957 15.2451C10.3687 14.1361 9.93069 12.4441 9.93069 10.5831C9.93069 8.61917 10.4137 6.83619 11.2157 5.73721C13.6677 5.14511 15.8063 3.59126 17.416 2.42172ZM6.97169 23H10.1817C10.7927 23 11.2797 22.197 10.5217 21.579C10.0717 21.212 9.73769 20.723 9.55969 20.171L8.64169 17.0001H4.02669L5.61769 21.993C5.81469 22.573 6.35969 23 6.97169 23ZM21.1717 16.5701C20.4527 18.2261 19.1847 18.2551 18.4517 16.5711C18.0157 15.5691 17.7207 13.7991 17.5597 12.6101H17.9397C19.1137 12.6101 20.0647 11.6561 20.0647 10.4792C20.0647 9.30217 19.1137 8.34718 17.9397 8.34718H17.5497C17.7097 7.13719 18.0877 5.40021 18.5237 4.45722C19.2877 2.80524 20.4647 2.77724 21.2437 4.45622C22.5587 7.29419 22.6117 13.2501 21.1717 16.5701ZM4.36569 15.0001H8.73669C8.22369 13.7351 7.93369 12.2211 7.93369 10.5941C7.93369 8.88717 8.24869 7.30019 8.80969 6.00021H4.36569C1.91369 6.00021 -0.0703125 8.04718 -0.0703125 10.5002C-0.0703125 12.9531 1.91369 15.0001 4.36569 15.0001Z" fill="white"/>
</g>
<defs>
<clipPath id="clip0_2035_21824">
<rect width="24" height="24" fill="white"/>
</clipPath>
</defs>
</svg>
