<svg width="24" height="24" viewBox="0 0 24 24" fill="none" xmlns="http://www.w3.org/2000/svg">
<path d="M8.56832 10.208C8.73103 10.7358 8.43508 11.2955 7.90731 11.4582C7.37954 11.6209 6.81979 11.325 6.65708 10.7972C6.49437 10.2694 6.79032 9.70968 7.31809 9.54697C7.84586 9.38426 8.40561 9.6802 8.56832 10.208Z" fill="white"/>
<path d="M8.08408 12.0316C8.24679 12.5593 7.95084 13.1191 7.42307 13.2818C6.8953 13.4445 6.33555 13.1486 6.17284 12.6208C6.01013 12.093 6.30608 11.5333 6.83385 11.3706C7.36162 11.2079 7.92137 11.5038 8.08408 12.0316Z" fill="white"/>
<path d="M9.99531 11.4424C10.158 11.9701 9.86208 12.5299 9.33431 12.6926C8.80653 12.8553 8.24679 12.5593 8.08408 12.0316C7.92137 11.5038 8.21731 10.9441 8.74509 10.7813C9.27286 10.6186 9.83261 10.9146 9.99531 11.4424Z" fill="white"/>
<path d="M8.02515 11.8404C8.02515 11.8404 8.37749 12.5109 8.66537 12.8988C8.97417 13.3149 9.5598 13.8788 9.5598 13.8788L7.90463 14.3891C7.90463 14.3891 8.07109 13.5933 8.092 13.0756C8.1115 12.5929 8.02515 11.8404 8.02515 11.8404Z" fill="white"/>
<path d="M8.53961 11.4726C8.63723 11.7892 8.45966 12.1251 8.143 12.2227C7.82634 12.3203 7.49049 12.1428 7.39286 11.8261C7.29524 11.5094 7.47281 11.1736 7.78947 11.076C8.10613 10.9783 8.44198 11.1559 8.53961 11.4726Z" fill="white"/>
<path d="M4.08111 5.83591C4.16247 6.09979 4.0145 6.37967 3.75061 6.46102C3.48672 6.54237 3.20685 6.3944 3.1255 6.13052C3.04414 5.86663 3.19211 5.58676 3.456 5.5054C3.71989 5.42405 3.99976 5.57202 4.08111 5.83591Z" fill="white"/>
<path d="M3.83899 6.7477C3.92035 7.01159 3.77238 7.29146 3.50849 7.37282C3.2446 7.45417 2.96473 7.3062 2.88338 7.04231C2.80202 6.77843 2.94999 6.49855 3.21388 6.4172C3.47777 6.33585 3.75764 6.48382 3.83899 6.7477Z" fill="white"/>
<path d="M4.79461 6.45309C4.87597 6.71698 4.72799 6.99685 4.46411 7.07821C4.20022 7.15956 3.92035 7.01159 3.83899 6.7477C3.75764 6.48382 3.90561 6.20394 4.1695 6.12259C4.43338 6.04123 4.71326 6.18921 4.79461 6.45309Z" fill="white"/>
<path d="M3.80953 6.65214C3.80953 6.65214 3.9857 6.98737 4.12964 7.18132C4.28404 7.38936 4.57686 7.67131 4.57686 7.67131L3.74927 7.92645C3.74927 7.92645 3.8325 7.52856 3.84296 7.2697C3.85271 7.02837 3.80953 6.65214 3.80953 6.65214Z" fill="white"/>
<path d="M4.06676 6.4682C4.11557 6.62653 4.02679 6.79445 3.86845 6.84327C3.71012 6.89208 3.5422 6.8033 3.49339 6.64496C3.44457 6.48663 3.53336 6.31871 3.69169 6.2699C3.85002 6.22108 4.01794 6.30987 4.06676 6.4682Z" fill="white"/>
<path d="M5.964 20.4289L1.25025 5.13904L9.85081 2.48755L11.2985 7.18335L11.7948 5.39879L10.6591 1.71513C10.5778 1.45125 10.2979 1.30327 10.034 1.38463L0.477828 4.33073C0.213942 4.41208 0.06597 4.69195 0.147324 4.95584L5.15569 21.2013C5.23704 21.4652 5.51691 21.6132 5.7808 21.5318L7.45146 21.0168L7.76976 19.8722L5.964 20.4289Z" fill="white"/>
<path fill-rule="evenodd" clip-rule="evenodd" d="M13.9816 3.13368C13.7156 3.05969 13.4399 3.21539 13.3659 3.48143L8.81116 19.8599C8.73717 20.1259 8.89287 20.4016 9.15891 20.4756L18.7933 23.1549C19.0593 23.2288 19.335 23.0732 19.409 22.8071L23.9638 6.42864C24.0378 6.1626 23.8821 5.88695 23.616 5.81296L13.9816 3.13368ZM15.7026 6.15116C15.5663 6.36591 15.3225 6.43666 15.1036 6.3758C14.9487 6.33272 14.8314 6.22726 14.7633 6.10012C14.7631 6.18025 14.7648 6.27528 14.7716 6.36598C14.7892 6.60024 14.9023 6.91447 14.9023 6.91447L14.1316 6.70013C14.1316 6.70013 14.3687 6.48329 14.5046 6.29173C14.5514 6.22585 14.5995 6.15581 14.6416 6.09366C14.5245 6.1531 14.3805 6.1747 14.2365 6.13466C14.0181 6.07393 13.8413 5.88726 13.8398 5.63385C13.8349 4.7796 15.1306 4.59932 15.1306 4.59932C15.1306 4.59932 16.1332 5.47281 15.7026 6.15116ZM16.8128 14.9709C17.2505 15.0926 17.7382 14.9512 18.0108 14.5217C18.872 13.1649 16.8668 11.418 16.8668 11.418C16.8668 11.418 14.2754 11.7785 14.2852 13.487C14.2881 13.9938 14.6418 14.3672 15.0787 14.4887C15.3666 14.5687 15.6546 14.5255 15.8889 14.4066C15.8046 14.531 15.7084 14.671 15.6149 14.8028C15.3429 15.1859 14.8687 15.6196 14.8687 15.6196L16.4102 16.0483C16.4102 16.0483 16.184 15.4198 16.1488 14.9513C16.1353 14.7699 16.1317 14.5798 16.1323 14.4196C16.2685 14.6738 16.503 14.8848 16.8128 14.9709ZM18.8297 21.0331C18.6933 21.2478 18.4495 21.3186 18.2307 21.2577C18.0757 21.2146 17.9585 21.1092 17.8904 20.982C17.8901 21.0622 17.8919 21.1572 17.8987 21.2479C17.9162 21.4822 18.0294 21.7964 18.0294 21.7964L17.2586 21.5821C17.2586 21.5821 17.4957 21.3652 17.6317 21.1737C17.6784 21.1078 17.7266 21.0377 17.7687 20.9756C17.6515 21.035 17.5075 21.0566 17.3636 21.0166C17.1452 20.9559 16.9683 20.7692 16.9669 20.5158C16.962 19.6615 18.2576 19.4812 18.2576 19.4812C18.2576 19.4812 19.2603 20.3547 18.8297 21.0331Z" fill="white"/>
</svg>
