<svg width="24" height="24" viewBox="0 0 24 24" fill="none" xmlns="http://www.w3.org/2000/svg">
<path fill-rule="evenodd" clip-rule="evenodd" d="M3 9.62069C3 9.27789 3.25184 9 3.5625 9H5.43749C5.665 9 5.8701 9.15123 5.95717 9.38316C6.04412 9.6148 5.99623 9.88138 5.83585 10.0589L5.83482 10.0601L5.82766 10.0682C5.82074 10.076 5.80966 10.0888 5.79499 10.1062C5.76563 10.1409 5.72215 10.1936 5.66926 10.2617C5.56296 10.3985 5.42133 10.594 5.28052 10.8271C4.98669 11.3134 4.74999 11.8762 4.74999 12.3793C4.74999 12.7221 4.49815 13 4.18749 13C3.87684 13 3.625 12.7221 3.625 12.3793C3.625 11.5564 3.96751 10.7861 4.28352 10.2414H3.5625C3.25184 10.2414 3 9.96349 3 9.62069Z" fill="white"/>
<path fill-rule="evenodd" clip-rule="evenodd" d="M9 9.62069C9 9.27789 9.25184 9 9.5625 9H11.4375C11.665 9 11.8701 9.15123 11.9572 9.38316C12.0441 9.6148 11.9962 9.88138 11.8359 10.0589L11.8348 10.0601L11.8277 10.0682C11.8207 10.076 11.8097 10.0888 11.795 10.1062C11.7656 10.1409 11.7221 10.1936 11.6693 10.2617C11.563 10.3985 11.4213 10.594 11.2805 10.8271C10.9867 11.3134 10.75 11.8762 10.75 12.3793C10.75 12.7221 10.4982 13 10.1875 13C9.87683 13 9.625 12.7221 9.625 12.3793C9.625 11.5564 9.96751 10.7861 10.2835 10.2414H9.5625C9.25184 10.2414 9 9.96349 9 9.62069Z" fill="white"/>
<path fill-rule="evenodd" clip-rule="evenodd" d="M15 9.62069C15 9.27789 15.2518 9 15.5625 9H17.4375C17.665 9 17.8701 9.15123 17.9572 9.38316C18.0441 9.6148 17.9962 9.88138 17.8359 10.0589L17.8348 10.0601L17.8277 10.0682C17.8207 10.076 17.8097 10.0888 17.795 10.1062C17.7656 10.1409 17.7221 10.1936 17.6693 10.2617C17.563 10.3985 17.4213 10.594 17.2805 10.8271C16.9867 11.3134 16.75 11.8762 16.75 12.3793C16.75 12.7221 16.4982 13 16.1875 13C15.8768 13 15.625 12.7221 15.625 12.3793C15.625 11.5564 15.9675 10.7861 16.2835 10.2414H15.5625C15.2518 10.2414 15 9.96349 15 9.62069Z" fill="white"/>
<path fill-rule="evenodd" clip-rule="evenodd" d="M18 5V6H19C19.5523 6 20 6.44771 20 7V12H22V8.91465C21.4174 8.70873 21 8.15311 21 7.5C21 6.67157 21.6716 6 22.5 6C23.3284 6 24 6.67157 24 7.5C24 8.15311 23.5826 8.70873 23 8.91465V12.5C23 12.7761 22.7761 13 22.5 13H20V15C20 15.5523 19.5523 16 19 16H18V18C18 19.6569 16.6569 21 15 21H6C4.34315 21 3 19.6569 3 18V16H2C1.44771 16 1 15.5523 1 15V7C1 6.44772 1.44772 6 2 6H3L3 5C3 3.34314 4.34315 2 6 2H15C16.6569 2 18 3.34315 18 5ZM19 7.5C19 7.22386 18.7761 7 18.5 7H14.5C14.2239 7 14 7.22386 14 7.5V14.5C14 14.7761 14.2239 15 14.5 15H18.5C18.7761 15 19 14.7761 19 14.5V7.5ZM2.5 7C2.22386 7 2 7.22386 2 7.5V14.5C2 14.7761 2.22386 15 2.5 15H6.5C6.77614 15 7 14.7761 7 14.5V7.5C7 7.22386 6.77614 7 6.5 7H2.5ZM8.5 7C8.22386 7 8 7.22386 8 7.5V14.5C8 14.7761 8.22386 15 8.5 15H12.5C12.7761 15 13 14.7761 13 14.5V7.5C13 7.22386 12.7761 7 12.5 7H8.5ZM6.5 17.5C6.22386 17.5 6 17.7239 6 18C6 18.2761 6.22386 18.5 6.5 18.5H14.5C14.7761 18.5 15 18.2761 15 18C15 17.7239 14.7761 17.5 14.5 17.5H6.5Z" fill="white"/>
</svg>
